<?xml version="1.0" encoding="UTF-8"?>
<svg id="_Слой_2" data-name="Слой 2" xmlns="http://www.w3.org/2000/svg" viewBox="0 0 225 225">
  <defs>
    <style>
      .cls-1 {
        fill: #7d6659;
      }

      .cls-1, .cls-2, .cls-3, .cls-4, .cls-5, .cls-6, .cls-7, .cls-8, .cls-9, .cls-10, .cls-11, .cls-12, .cls-13, .cls-14, .cls-15, .cls-16, .cls-17, .cls-18, .cls-19, .cls-20, .cls-21 {
        stroke-width: 0px;
      }

      .cls-2 {
        fill: #252722;
      }

      .cls-3 {
        fill: #dbd5d2;
      }

      .cls-4 {
        fill: #cfdb9f;
      }

      .cls-5 {
        fill: #f5f3f2;
      }

      .cls-6 {
        fill: #5f625e;
      }

      .cls-7 {
        fill: #add250;
      }

      .cls-8 {
        fill: #cd5a24;
      }

      .cls-9 {
        fill: #aca199;
      }

      .cls-10 {
        fill: none;
        opacity: 0;
      }

      .cls-11 {
        fill: #ec7832;
      }

      .cls-12 {
        fill: #a0a19f;
      }

      .cls-13 {
        fill: #5c6366;
      }

      .cls-14 {
        fill: #c0c3c4;
      }

      .cls-15 {
        fill: #c6bdb8;
      }

      .cls-16 {
        fill: #ffc56e;
      }

      .cls-17 {
        fill: #c5c8c9;
      }

      .cls-18 {
        fill: #87be00;
      }

      .cls-19 {
        fill: #664a3b;
      }

      .cls-20 {
        fill: #a0a4a6;
      }

      .cls-21 {
        fill: #a3948d;
      }
    </style>
  </defs>
  <g id="Layer_1" data-name="Layer 1">
    <g>
      <rect class="cls-10" width="225" height="225"/>
      <circle class="cls-4" cx="109.33" cy="105.38" r="79.7" transform="translate(-36.03 61.47) rotate(-27.14)"/>
      <path class="cls-4" d="m177.92,46.26c0,16.6-13.45,30.05-30.05,30.05s-30.05-13.45-30.05-30.05,13.45-30.05,30.05-30.05,30.05,13.45,30.05,30.05Z"/>
      <g>
        <g>
          <g>
            <path class="cls-18" d="m45.57,78.8c-.32.86-.86,1.66-1.64,2.14-1.3.8-2.95.59-4.46.4-1.51-.19-3.21-.29-4.4.66.29-1.93.63-3.97,1.9-5.45,1.24-1.45,3.16-2.11,5.03-2.46,1.87-.35,3.8-.44,5.61-1.05-.77.69-1.14,1.72-1.36,2.73-.22,1.01-.32,2.06-.68,3.03Z"/>
            <path class="cls-7" d="m39.63,79.26c-1.43.62-2.8,1.38-4.08,2.26,2.14-2.91,6.67-3.13,8.93-5.95-.31,1.01-1.1,1.8-1.99,2.36-.89.56-1.89.91-2.86,1.33Z"/>
            <path class="cls-7" d="m39.03,77.09c-.84,1.19-1.69,2.38-2.53,3.56,1.25-.81,2-2.18,2.53-3.56Z"/>
            <path class="cls-7" d="m41.45,75.87c-.45,1.11-1.1,2.13-1.92,3,.35-.26.37.06.68-.24.14-.13.6-.86.71-1.01.38-.5.62-1.13.52-1.75Z"/>
            <path class="cls-7" d="m40.22,78.63c-.06,0-.13.02-.16.08-.06.11.11.2.23.21.65.08,1.31.16,1.96.08.65-.09,1.3-.37,1.7-.89-1.39.44-2.41.61-3.74.52Z"/>
            <path class="cls-7" d="m42.75,79.9c-1.59.14-3.2.07-4.77-.23-.01.32.33.53.64.62,1.35.39,2.78,0,4.13-.39Z"/>
            <path class="cls-18" d="m34.7,76.83c-.95-1.8-2.86-2.95-4.85-3.38-1.99-.42-4.06-.19-6.05.23.95.3,1.64,1.16,2.01,2.09s.5,1.93.7,2.91c.2.98.51,1.98,1.17,2.73.94,1.06,2.46,1.45,3.87,1.34,1.41-.11,2.75-.64,4.06-1.17-.07-1.62-.16-3.31-.92-4.75Z"/>
            <path class="cls-7" d="m30.73,77.92c-.87-1.08-1.59-2.44-2.9-2.89,1.25,1.12,2.03,2.66,3.05,4,1.02,1.33,2.5,2.53,4.18,2.43-1.57-1.03-3.16-2.08-4.33-3.54Z"/>
            <path class="cls-7" d="m32.17,76.33c-.08.73-.15,1.47-.07,2.2.08.73.33,1.46.84,2-.02-.5-.12-1-.22-1.5-.18-.9-.36-1.8-.54-2.7Z"/>
            <path class="cls-7" d="m30.21,78.11c.09.19.41.08.48-.12.06-.2-.4-2.79-.76-3.03.09,1.05.19,2.09.28,3.14Z"/>
            <path class="cls-7" d="m30.46,78.48c.11-.01.23-.04.29-.14.06-.11,0-.25-.11-.32-.1-.07-.23-.08-.36-.09-.85-.06-1.69-.12-2.54-.18.77.58,1.77.85,2.72.73Z"/>
            <path class="cls-7" d="m28.73,79.68c1.15.66,2.56.86,3.84.52-.04-.12-.08-.24-.12-.37-1.24-.05-2.48-.1-3.72-.15Z"/>
            <path class="cls-18" d="m36.5,92.57c.68-.23.81-1.12.82-1.84.03-1.77.07-3.56-.17-5.31-.23-1.76-.74-3.51-1.71-4.99-.4.37-.56.95-.55,1.49.01.55.17,1.08.29,1.61.65,2.73.52,5.65-.37,8.31.46.45,1.07.94,1.69.73Z"/>
          </g>
          <path class="cls-21" d="m53.58,91.22c-.66.22-2.56-1.72-3.59-.93-2.53,1.96-4.72-1.27-7.47-1.51-3.04-.26-4.01,2.19-7.05,2.26-2.93.07-5.6-2.58-8.46-1.95-2.39.53-3.74,3.27-3.56,5.71.18,2.44,1.49,4.63,2.77,6.72,8.74-1.17,17.99-1.96,27.36-2.36v-7.94Z"/>
          <path class="cls-19" d="m49.87,95.14c-3.3.79-2.79,1.4-6.22,1.8-2.45.29-4.9-.24-7.32-.72-2.41-.48-4.9-.92-7.32-.48-2.42.44-4.15,1.09-5.58,3.09-3.66,5.11.67,12.12,3.11,12.43,3.45.45,5.67-3.73,9.01-2.75,1.74.51,3.56,2.06,5.38,2.13,2.23.08,4.16-2.85,6.35-2.41,1.48.29,3.05,1.44,5.11,1.54,1.18.06,4.55-1.19,4.55-1.31l-7.08-13.34Z"/>
        </g>
        <g>
          <g>
            <path class="cls-18" d="m70.59,78.8c-.32.86-.86,1.66-1.64,2.14-1.3.8-2.95.59-4.46.4-1.51-.19-3.21-.29-4.4.66.29-1.93.63-3.97,1.9-5.45,1.24-1.45,3.16-2.11,5.03-2.46,1.87-.35,3.8-.44,5.61-1.05-.77.69-1.14,1.72-1.36,2.73-.22,1.01-.32,2.06-.68,3.03Z"/>
            <path class="cls-7" d="m64.66,79.26c-1.43.62-2.79,1.38-4.08,2.26,2.14-2.91,6.67-3.13,8.93-5.95-.31,1.01-1.1,1.8-2,2.36-.89.56-1.89.91-2.86,1.33Z"/>
            <path class="cls-7" d="m64.06,77.09c-.84,1.19-1.69,2.38-2.53,3.56,1.24-.81,2-2.18,2.53-3.56Z"/>
            <path class="cls-7" d="m66.48,75.87c-.45,1.11-1.1,2.13-1.92,3,.35-.26.37.06.68-.24.13-.13.6-.86.71-1.01.38-.5.62-1.13.52-1.75Z"/>
            <path class="cls-7" d="m65.24,78.63c-.06,0-.13.02-.16.08-.06.11.11.2.23.21.65.08,1.31.16,1.96.08.65-.09,1.3-.37,1.71-.89-1.39.44-2.41.61-3.74.52Z"/>
            <path class="cls-7" d="m67.78,79.9c-1.59.14-3.2.07-4.77-.23-.01.32.33.53.64.62,1.35.39,2.78,0,4.13-.39Z"/>
            <path class="cls-18" d="m59.72,76.83c-.95-1.8-2.86-2.95-4.85-3.38-1.99-.42-4.06-.19-6.05.23.95.3,1.64,1.16,2.01,2.09s.5,1.93.7,2.91c.2.98.51,1.98,1.17,2.73.94,1.06,2.46,1.45,3.87,1.34,1.41-.11,2.75-.64,4.06-1.17-.07-1.62-.16-3.31-.92-4.75Z"/>
            <path class="cls-7" d="m55.76,77.92c-.87-1.08-1.59-2.44-2.9-2.89,1.25,1.12,2.02,2.66,3.05,4,1.02,1.33,2.51,2.53,4.18,2.43-1.56-1.03-3.16-2.08-4.33-3.54Z"/>
            <path class="cls-7" d="m57.2,76.33c-.08.73-.15,1.47-.07,2.2.08.73.33,1.46.84,2-.03-.5-.12-1-.22-1.5-.18-.9-.36-1.8-.54-2.7Z"/>
            <path class="cls-7" d="m55.23,78.11c.09.19.41.08.48-.12.06-.2-.4-2.79-.76-3.03.09,1.05.19,2.09.28,3.14Z"/>
            <path class="cls-7" d="m55.48,78.48c.11-.01.23-.04.29-.14.06-.11,0-.25-.11-.32-.1-.07-.23-.08-.36-.09l-2.54-.18c.77.58,1.77.85,2.72.73Z"/>
            <path class="cls-7" d="m53.76,79.68c1.15.66,2.56.86,3.84.52-.04-.12-.08-.24-.12-.37-1.24-.05-2.48-.1-3.72-.15Z"/>
            <path class="cls-18" d="m61.52,92.57c.68-.23.81-1.12.82-1.84.03-1.77.06-3.56-.17-5.31-.23-1.76-.74-3.51-1.71-4.99-.41.37-.56.95-.55,1.49.01.55.17,1.08.29,1.61.65,2.73.52,5.65-.37,8.31.46.45,1.07.94,1.69.73Z"/>
          </g>
          <g>
            <path class="cls-18" d="m95.54,78.8c-.32.86-.86,1.66-1.64,2.14-1.3.8-2.95.59-4.46.4-1.51-.19-3.21-.29-4.4.66.29-1.93.63-3.97,1.9-5.45,1.24-1.45,3.16-2.11,5.03-2.46,1.87-.35,3.8-.44,5.61-1.05-.77.69-1.14,1.72-1.36,2.73-.22,1.01-.32,2.06-.68,3.03Z"/>
            <path class="cls-7" d="m89.61,79.26c-1.43.62-2.8,1.38-4.08,2.26,2.14-2.91,6.67-3.13,8.93-5.95-.31,1.01-1.1,1.8-1.99,2.36-.89.56-1.89.91-2.86,1.33Z"/>
            <path class="cls-7" d="m89.01,77.09c-.84,1.19-1.69,2.38-2.53,3.56,1.25-.81,2-2.18,2.53-3.56Z"/>
            <path class="cls-7" d="m91.43,75.87c-.45,1.11-1.1,2.13-1.92,3,.35-.26.37.06.68-.24.13-.13.6-.86.71-1.01.38-.5.62-1.13.52-1.75Z"/>
            <path class="cls-7" d="m90.19,78.63c-.06,0-.13.02-.16.08-.06.11.11.2.23.21.65.08,1.31.16,1.96.08.65-.09,1.3-.37,1.7-.89-1.39.44-2.41.61-3.74.52Z"/>
            <path class="cls-7" d="m92.73,79.9c-1.59.14-3.2.07-4.77-.23-.01.32.33.53.64.62,1.35.39,2.78,0,4.13-.39Z"/>
            <path class="cls-18" d="m84.67,76.83c-.95-1.8-2.86-2.95-4.85-3.38-1.99-.42-4.06-.19-6.05.23.95.3,1.64,1.16,2.01,2.09s.5,1.93.7,2.91c.2.98.51,1.98,1.17,2.73.94,1.06,2.46,1.45,3.87,1.34,1.41-.11,2.75-.64,4.06-1.17-.07-1.62-.16-3.31-.92-4.75Z"/>
            <path class="cls-7" d="m80.71,77.92c-.87-1.08-1.59-2.44-2.9-2.89,1.25,1.12,2.02,2.66,3.05,4,1.02,1.33,2.5,2.53,4.18,2.43-1.57-1.03-3.16-2.08-4.33-3.54Z"/>
            <path class="cls-7" d="m82.15,76.33c-.08.73-.15,1.47-.07,2.2.08.73.33,1.46.84,2-.02-.5-.12-1-.22-1.5-.18-.9-.36-1.8-.54-2.7Z"/>
            <path class="cls-7" d="m80.18,78.11c.09.19.41.08.48-.12.06-.2-.4-2.79-.76-3.03.09,1.05.19,2.09.28,3.14Z"/>
            <path class="cls-7" d="m80.43,78.48c.11-.01.23-.04.29-.14.06-.11,0-.25-.11-.32-.1-.07-.23-.08-.36-.09-.85-.06-1.69-.12-2.54-.18.77.58,1.77.85,2.72.73Z"/>
            <path class="cls-7" d="m78.71,79.68c1.15.66,2.56.86,3.84.52-.04-.12-.08-.24-.12-.37-1.24-.05-2.48-.1-3.72-.15Z"/>
            <path class="cls-18" d="m86.47,92.57c.68-.23.81-1.12.82-1.84.03-1.77.07-3.56-.17-5.31-.23-1.76-.74-3.51-1.71-4.99-.41.37-.56.95-.55,1.49.01.55.17,1.08.29,1.61.65,2.73.52,5.65-.37,8.31.46.45,1.07.94,1.69.73Z"/>
          </g>
          <g>
            <path class="cls-18" d="m120.49,78.8c-.32.86-.86,1.66-1.64,2.14-1.3.8-2.95.59-4.46.4-1.51-.19-3.21-.29-4.4.66.29-1.93.63-3.97,1.9-5.45,1.24-1.45,3.16-2.11,5.03-2.46,1.87-.35,3.8-.44,5.61-1.05-.77.69-1.14,1.72-1.36,2.73-.22,1.01-.32,2.06-.68,3.03Z"/>
            <path class="cls-7" d="m114.56,79.26c-1.43.62-2.8,1.38-4.08,2.26,2.14-2.91,6.67-3.13,8.93-5.95-.31,1.01-1.1,1.8-1.99,2.36-.89.56-1.89.91-2.86,1.33Z"/>
            <path class="cls-7" d="m113.96,77.09c-.84,1.19-1.69,2.38-2.53,3.56,1.24-.81,2-2.18,2.53-3.56Z"/>
            <path class="cls-7" d="m116.38,75.87c-.45,1.11-1.1,2.13-1.92,3,.35-.26.37.06.68-.24.14-.13.6-.86.71-1.01.38-.5.62-1.13.52-1.75Z"/>
            <path class="cls-7" d="m115.14,78.63c-.06,0-.13.02-.16.08-.06.11.11.2.23.21.65.08,1.31.16,1.96.08.65-.09,1.3-.37,1.7-.89-1.39.44-2.41.61-3.74.52Z"/>
            <path class="cls-7" d="m117.68,79.9c-1.59.14-3.2.07-4.77-.23-.01.32.33.53.64.62,1.35.39,2.78,0,4.13-.39Z"/>
            <path class="cls-18" d="m109.63,76.83c-.95-1.8-2.86-2.95-4.85-3.38-1.99-.42-4.06-.19-6.05.23.95.3,1.64,1.16,2.01,2.09.38.93.5,1.93.7,2.91.2.98.51,1.98,1.17,2.73.94,1.06,2.46,1.45,3.87,1.34,1.41-.11,2.75-.64,4.06-1.17-.07-1.62-.16-3.31-.92-4.75Z"/>
            <path class="cls-7" d="m105.66,77.92c-.87-1.08-1.59-2.44-2.9-2.89,1.25,1.12,2.02,2.66,3.05,4,1.02,1.33,2.5,2.53,4.18,2.43-1.57-1.03-3.16-2.08-4.33-3.54Z"/>
            <path class="cls-7" d="m107.1,76.33c-.08.73-.15,1.47-.07,2.2.08.73.33,1.46.84,2-.02-.5-.12-1-.22-1.5-.18-.9-.36-1.8-.54-2.7Z"/>
            <path class="cls-7" d="m105.13,78.11c.09.19.42.08.48-.12.06-.2-.4-2.79-.76-3.03.09,1.05.19,2.09.28,3.14Z"/>
            <path class="cls-7" d="m105.38,78.48c.11-.01.23-.04.29-.14.06-.11,0-.25-.11-.32-.1-.07-.23-.08-.36-.09-.85-.06-1.69-.12-2.54-.18.77.58,1.77.85,2.72.73Z"/>
            <path class="cls-7" d="m103.66,79.68c1.15.66,2.56.86,3.84.52-.04-.12-.08-.24-.12-.37-1.24-.05-2.48-.1-3.72-.15Z"/>
            <path class="cls-18" d="m111.42,92.57c.68-.23.81-1.12.82-1.84.03-1.77.07-3.56-.17-5.31-.23-1.76-.74-3.51-1.71-4.99-.41.37-.56.95-.55,1.49.01.55.17,1.08.29,1.61.65,2.73.52,5.65-.37,8.31.46.45,1.07.94,1.68.73Z"/>
          </g>
          <path class="cls-21" d="m86.08,88.38c2.23.3,3.86,2.42,6.08,2.79,3.39.55,6.4-3.16,9.78-2.55,2.13.38,3.71,2.4,5.86,2.69,2.65.35,4.83-2.01,7.4-2.75,2.92-.83,4.76,3.69,9.31,1.31,2.69-1.4,1.53,8.63-1.01,10.31-22.98-2.17-46.04-5.83-68.92-2.77-1.28-2.09-6.11-2.6-6.11-2.6-.18-2.44,1.17-5.18,3.56-5.71,2.86-.64,5.53,2.02,8.46,1.95,3.04-.08,5.55-3.06,8.58-2.8,2.75.24,4.75,3.08,7.5,3.28,3.39.25,6.15-3.6,9.52-3.14Z"/>
          <path class="cls-19" d="m68.68,96.94c-2.44.29-4.9-.24-7.32-.72-2.41-.48-8.95-1.6-11.37-1.15-1.29.24-1.73,1.26-1.75,2.2-.02,1.12-.31,2.21-.7,3.26-1.84,4.84,2.01,8.85,4.19,9.13,3.45.45,6.14-2.53,9.48-1.55,1.75.51,2.93,2.47,4.75,2.54,2.23.08,3.92-2.79,6.11-2.35,1.49.3,2.38,2.02,3.87,2.27,2.21.36,3.78-2.69,6.02-2.6,1.84.08,3.01,2.24,4.83,2.53,2.46.39,4.59-2.78,6.97-2.05,1,.31,1.7,1.26,2.68,1.63,2.69,1,5.43-2.8,8.13-1.82,1.26.46,3.78,2.37,6.99,2.71,2.32.24,4.55-1.19,6.13-1.41,1.85-.25,3.49,1.13,5.32,1.5,3.77.77,5.26.08,6.77-1.75,3.77-4.61-.39-14.49-5.91-11.91-3.91,1.83-3.61-2.17-7.18-2.45-2.78-.22-5.54.86-8.33.67-3.62-.25-6.89-2.8-10.51-2.55-2.87.2-5.43,2.17-8.31,2.19-2.5.02-4.78-1.43-7.25-1.74-4.68-.59-8.92,2.88-13.6,3.43Z"/>
        </g>
        <g>
          <g>
            <path class="cls-18" d="m144.65,78.8c-.32.86-.86,1.66-1.64,2.14-1.3.8-2.95.59-4.46.4-1.51-.19-3.21-.29-4.4.66.29-1.93.63-3.97,1.9-5.45,1.24-1.45,3.16-2.11,5.03-2.46,1.87-.35,3.8-.44,5.61-1.05-.77.69-1.14,1.72-1.36,2.73-.22,1.01-.32,2.06-.68,3.03Z"/>
            <path class="cls-7" d="m138.72,79.26c-1.43.62-2.8,1.38-4.08,2.26,2.14-2.91,6.67-3.13,8.93-5.95-.31,1.01-1.1,1.8-1.99,2.36-.89.56-1.89.91-2.86,1.33Z"/>
            <path class="cls-7" d="m138.12,77.09c-.84,1.19-1.69,2.38-2.53,3.56,1.24-.81,2-2.18,2.53-3.56Z"/>
            <path class="cls-7" d="m140.54,75.87c-.45,1.11-1.1,2.13-1.92,3,.35-.26.37.06.68-.24.14-.13.6-.86.71-1.01.38-.5.62-1.13.52-1.75Z"/>
            <path class="cls-7" d="m139.31,78.63c-.06,0-.13.02-.16.08-.06.11.11.2.23.21.65.08,1.31.16,1.96.08.65-.09,1.3-.37,1.7-.89-1.39.44-2.41.61-3.74.52Z"/>
            <path class="cls-7" d="m141.84,79.9c-1.59.14-3.2.07-4.77-.23-.01.32.33.53.64.62,1.35.39,2.78,0,4.13-.39Z"/>
            <path class="cls-18" d="m133.79,76.83c-.95-1.8-2.86-2.95-4.85-3.38-1.99-.42-4.06-.19-6.05.23.95.3,1.64,1.16,2.01,2.09.38.93.5,1.93.7,2.91.2.98.51,1.98,1.17,2.73.94,1.06,2.46,1.45,3.87,1.34,1.41-.11,2.75-.64,4.06-1.17-.07-1.62-.16-3.31-.92-4.75Z"/>
            <path class="cls-7" d="m129.82,77.92c-.87-1.08-1.59-2.44-2.9-2.89,1.25,1.12,2.02,2.66,3.05,4,1.02,1.33,2.5,2.53,4.18,2.43-1.57-1.03-3.16-2.08-4.33-3.54Z"/>
            <path class="cls-7" d="m131.26,76.33c-.08.73-.15,1.47-.07,2.2.08.73.33,1.46.84,2-.02-.5-.12-1-.22-1.5-.18-.9-.36-1.8-.54-2.7Z"/>
            <path class="cls-7" d="m129.29,78.11c.09.19.42.08.48-.12.06-.2-.4-2.79-.76-3.03.09,1.05.19,2.09.28,3.14Z"/>
            <path class="cls-7" d="m129.54,78.48c.11-.01.23-.04.29-.14.06-.11,0-.25-.11-.32-.1-.07-.23-.08-.36-.09-.85-.06-1.69-.12-2.54-.18.77.58,1.77.85,2.72.73Z"/>
            <path class="cls-7" d="m127.82,79.68c1.15.66,2.56.86,3.84.52-.04-.12-.08-.24-.12-.37-1.24-.05-2.48-.1-3.72-.15Z"/>
            <path class="cls-18" d="m135.59,92.57c.68-.23.81-1.12.82-1.84.03-1.77.07-3.56-.17-5.31-.23-1.76-.74-3.51-1.71-4.99-.4.37-.56.95-.55,1.49.01.55.17,1.08.29,1.61.65,2.73.52,5.65-.37,8.31.46.45,1.07.94,1.69.73Z"/>
          </g>
          <g>
            <path class="cls-18" d="m169.61,78.8c-.32.86-.86,1.66-1.64,2.14-1.3.8-2.95.59-4.46.4-1.51-.19-3.21-.29-4.4.66.29-1.93.63-3.97,1.9-5.45,1.24-1.45,3.16-2.11,5.03-2.46,1.87-.35,3.8-.44,5.61-1.05-.77.69-1.14,1.72-1.36,2.73-.22,1.01-.32,2.06-.68,3.03Z"/>
            <path class="cls-7" d="m163.67,79.26c-1.43.62-2.8,1.38-4.08,2.26,2.14-2.91,6.67-3.13,8.93-5.95-.31,1.01-1.1,1.8-1.99,2.36-.89.56-1.89.91-2.86,1.33Z"/>
            <path class="cls-7" d="m163.07,77.09c-.84,1.19-1.69,2.38-2.53,3.56,1.24-.81,2-2.18,2.53-3.56Z"/>
            <path class="cls-7" d="m165.49,75.87c-.45,1.11-1.1,2.13-1.92,3,.35-.26.37.06.68-.24.14-.13.6-.86.71-1.01.38-.5.62-1.13.52-1.75Z"/>
            <path class="cls-7" d="m164.26,78.63c-.06,0-.13.02-.16.08-.06.11.11.2.23.21.65.08,1.31.16,1.96.08.65-.09,1.3-.37,1.7-.89-1.39.44-2.41.61-3.74.52Z"/>
            <path class="cls-7" d="m166.79,79.9c-1.59.14-3.2.07-4.77-.23-.01.32.33.53.64.62,1.35.39,2.78,0,4.13-.39Z"/>
            <path class="cls-18" d="m158.74,76.83c-.95-1.8-2.86-2.95-4.85-3.38-1.99-.42-4.06-.19-6.05.23.95.3,1.64,1.16,2.01,2.09.37.93.5,1.93.7,2.91s.51,1.98,1.17,2.73c.94,1.06,2.46,1.45,3.87,1.34,1.41-.11,2.75-.64,4.06-1.17-.07-1.62-.16-3.31-.92-4.75Z"/>
            <path class="cls-7" d="m154.77,77.92c-.87-1.08-1.59-2.44-2.9-2.89,1.25,1.12,2.02,2.66,3.05,4,1.02,1.33,2.5,2.53,4.18,2.43-1.57-1.03-3.16-2.08-4.33-3.54Z"/>
            <path class="cls-7" d="m156.21,76.33c-.08.73-.15,1.47-.07,2.2.08.73.33,1.46.84,2-.02-.5-.12-1-.22-1.5-.18-.9-.36-1.8-.54-2.7Z"/>
            <path class="cls-7" d="m154.25,78.11c.09.19.41.08.48-.12.06-.2-.4-2.79-.76-3.03.09,1.05.19,2.09.28,3.14Z"/>
            <path class="cls-7" d="m154.49,78.48c.11-.01.23-.04.29-.14.06-.11,0-.25-.11-.32-.1-.07-.23-.08-.36-.09l-2.54-.18c.77.58,1.77.85,2.72.73Z"/>
            <path class="cls-7" d="m152.77,79.68c1.15.66,2.56.86,3.84.52-.04-.12-.08-.24-.12-.37-1.24-.05-2.48-.1-3.72-.15Z"/>
            <path class="cls-18" d="m160.54,92.57c.68-.23.81-1.12.82-1.84.03-1.77.07-3.56-.17-5.31-.23-1.76-.74-3.51-1.71-4.99-.41.37-.56.95-.55,1.49.01.55.17,1.08.29,1.61.65,2.73.52,5.65-.37,8.31.46.45,1.07.94,1.68.73Z"/>
          </g>
          <g>
            <path class="cls-18" d="m194.56,78.8c-.32.86-.86,1.66-1.64,2.14-1.3.8-2.95.59-4.46.4-1.51-.19-3.21-.29-4.4.66.29-1.93.63-3.97,1.9-5.45,1.24-1.45,3.16-2.11,5.03-2.46,1.87-.35,3.8-.44,5.61-1.05-.77.69-1.14,1.72-1.36,2.73-.22,1.01-.32,2.06-.68,3.03Z"/>
            <path class="cls-7" d="m188.62,79.26c-1.43.62-2.79,1.38-4.08,2.26,2.14-2.91,6.67-3.13,8.93-5.95-.31,1.01-1.1,1.8-1.99,2.36-.89.56-1.89.91-2.86,1.33Z"/>
            <path class="cls-7" d="m188.02,77.09c-.84,1.19-1.69,2.38-2.53,3.56,1.24-.81,2-2.18,2.53-3.56Z"/>
            <path class="cls-7" d="m190.44,75.87c-.45,1.11-1.1,2.13-1.92,3,.35-.26.37.06.68-.24.13-.13.6-.86.71-1.01.38-.5.62-1.13.52-1.75Z"/>
            <path class="cls-7" d="m189.21,78.63c-.06,0-.13.02-.16.08-.06.11.11.2.23.21.65.08,1.31.16,1.96.08s1.3-.37,1.71-.89c-1.39.44-2.41.61-3.74.52Z"/>
            <path class="cls-7" d="m191.74,79.9c-1.59.14-3.2.07-4.77-.23-.01.32.33.53.64.62,1.35.39,2.78,0,4.13-.39Z"/>
            <path class="cls-18" d="m183.69,76.83c-.95-1.8-2.86-2.95-4.85-3.38-1.99-.42-4.06-.19-6.05.23.95.3,1.64,1.16,2.01,2.09.38.93.5,1.93.7,2.91.2.98.51,1.98,1.17,2.73.94,1.06,2.46,1.45,3.87,1.34,1.41-.11,2.75-.64,4.06-1.17-.07-1.62-.16-3.31-.92-4.75Z"/>
            <path class="cls-7" d="m179.72,77.92c-.87-1.08-1.59-2.44-2.9-2.89,1.25,1.12,2.02,2.66,3.05,4,1.02,1.33,2.51,2.53,4.18,2.43-1.56-1.03-3.16-2.08-4.33-3.54Z"/>
            <path class="cls-7" d="m181.16,76.33c-.08.73-.15,1.47-.07,2.2.08.73.33,1.46.84,2-.03-.5-.12-1-.22-1.5-.18-.9-.36-1.8-.54-2.7Z"/>
            <path class="cls-7" d="m179.2,78.11c.09.19.41.08.48-.12.06-.2-.4-2.79-.76-3.03.09,1.05.19,2.09.28,3.14Z"/>
            <path class="cls-7" d="m179.45,78.48c.11-.01.23-.04.29-.14.06-.11,0-.25-.11-.32-.1-.07-.23-.08-.36-.09-.85-.06-1.69-.12-2.54-.18.77.58,1.77.85,2.72.73Z"/>
            <path class="cls-7" d="m177.72,79.68c1.15.66,2.56.86,3.84.52-.04-.12-.08-.24-.12-.37-1.24-.05-2.48-.1-3.72-.15Z"/>
            <path class="cls-18" d="m185.49,92.57c.68-.23.81-1.12.82-1.84.03-1.77.06-3.56-.17-5.31-.23-1.76-.74-3.51-1.71-4.99-.41.37-.56.95-.55,1.49.01.55.17,1.08.29,1.61.65,2.73.52,5.65-.37,8.31.46.45,1.07.94,1.68.73Z"/>
          </g>
          <path class="cls-21" d="m160.15,88.38c2.23.3,3.86,2.42,6.08,2.79,3.38.55,6.4-3.16,9.78-2.55,2.13.38,3.71,2.4,5.86,2.69,2.65.35,4.83-2.01,7.4-2.75,2.92-.83,6.33.8,7.54,3.58,1.22,2.78.13,6.36-2.41,8.04-22.98-2.17-46.21-1.71-69.1,1.35-1.28-2.09-2.59-4.28-2.77-6.72-.18-2.44,1.17-5.18,3.56-5.71,2.86-.64,5.53,2.02,8.46,1.95,3.05-.08,5.55-3.06,8.58-2.8,2.75.24,4.75,3.08,7.5,3.28,3.39.25,6.14-3.6,9.51-3.14Z"/>
          <path class="cls-19" d="m142.74,96.94c-2.44.29-4.9-.24-7.32-.72-2.41-.48-4.9-.92-7.32-.48-2.42.44-4.15,1.09-5.58,3.09-3.66,5.11.67,12.12,3.11,12.43,3.45.45,6.31-4.14,9.64-3.15,1.75.51,2.93,2.47,4.75,2.54,2.23.08,3.91-2.79,6.11-2.35,1.48.3,2.38,2.02,3.87,2.27,2.21.36,3.78-2.69,6.02-2.6,1.84.08,3.01,2.24,4.83,2.53,2.46.39,4.59-2.78,6.97-2.05,1,.31,1.7,1.26,2.68,1.63,2.69,1,5.43-2.8,8.13-1.82,1.26.46,2.07,1.87,3.39,2.1,1.58.27,2.9-1.27,4.49-1.48,1.85-.25,3.47,1.32,5.32,1.5,2.58.26,8.72-3.88,5.47-11.78-.98-2.4-2.99-3.37-6.56-3.65-2.78-.22-5.54.86-8.33.67-3.62-.25-6.89-2.8-10.51-2.55-2.87.2-5.43,2.17-8.31,2.19-2.5.02-4.78-1.43-7.25-1.74-4.68-.59-8.92,2.88-13.6,3.43Z"/>
        </g>
        <g>
          <path class="cls-17" d="m168.55,100.39c-.04-.41-.36-.73-.77-.79l-13.4-.79s-.03-.01-.04-.01l-5.89-.82c-.41-.06-.79.22-.85.62h0c-.06.41.23.78.65.84l5.06.71,8.21,4.41c.38.18.58.61.47,1.01l-.52,2c-.15.55.27,1.09.85,1.1h.02c.42,0,.79-.29.87-.7l.6-3.05c.08-.4-.13-.79-.5-.96l-8.19-3.78c3.08.89,8.94,2.61,8.94,2.61.37.09.61.43.59.81l-.11,1.85c-.03.51.43.92.94.82h.02c.37-.07.64-.39.64-.77v-2.79c0-.36-.26-.68-.61-.76l-10.47-2.52,11.19,1.32c.42.06.74.42.76.84l.09,2.09c.03.58.59.98,1.15.81h.02c.41-.13.67-.52.63-.94l-.34-3.14Z"/>
          <path class="cls-8" d="m146.66,101.32l-17.93-2.51c-1.26-.18-2.12-1.47-1.92-2.89v-.05c.21-1.42,1.39-2.43,2.64-2.25l17.93,2.51c1.26.18,2.12,1.47,1.92,2.89v.05c-.21,1.42-1.39,2.43-2.64,2.25Z"/>
        </g>
      </g>
      <path class="cls-4" d="m202.98,151.53c0,17.57-14.24,31.81-31.81,31.81s-31.81-14.24-31.81-31.81,14.24-31.81,31.81-31.81,31.81,14.24,31.81,31.81Z"/>
      <g>
        <g>
          <g>
            <path class="cls-18" d="m187.27,141.2c-.19-3.69-1.95-7.26-4.76-9.66.61,1.47-.06,3.17.21,4.75.19,1.14.87,2.15,1.72,2.94.84.79,1.84,1.39,2.84,1.98Z"/>
            <g>
              <path class="cls-18" d="m194,133.51c1.14.35,2.05,1.2,2.89,2.04.85.84,1.71,1.72,2.83,2.15,1.11.43,2.55.27,3.25-.7-.4,1.18-1.76,1.78-3,1.81-1.25.03-2.46-.38-3.69-.55-3.39-.46-6.99.99-9.1,3.69.04-2.1.3-4.29,1.44-6.06,1.14-1.77,3.37-2.98,5.38-2.37Z"/>
              <path class="cls-7" d="m191.91,138.29c.53-.81.77-1.76,1.13-2.65-.75,1.64-1.99,3.05-3.52,3.99.1.01.2.01.3,0,.52-.31,1.08-.58,1.65-.8.17-.17.32-.35.44-.55Z"/>
              <path class="cls-7" d="m192.64,138.47c.33-.08.66-.15.99-.19.15-.09.3-.18.43-.3.42-.39.68-.95.71-1.53-.57.81-1.3,1.5-2.13,2.03Z"/>
              <path class="cls-7" d="m196,138.23c.6-.2,1.11-.7,1.24-1.32-.62.48-1.29.9-1.98,1.27.25,0,.49.02.74.05Z"/>
            </g>
          </g>
          <path class="cls-18" d="m186.18,160.84c.25-7.1.83-14.2,1.68-21.25-2.73,6.98-2.86,14.66-2.96,22.15,0,.41.64.53.93.25.29-.28.33-.74.34-1.14Z"/>
          <path class="cls-18" d="m202.2,141.6c-1.26,1.38-2.05,3.12-2.81,4.83-.76,1.71-1.53,3.46-2.75,4.87-1.23,1.41-3.01,2.47-4.88,2.37-2.45-.14-4.49-2.2-6.95-2.26.45-2.42,1.43-4.79,3.11-6.58s4.13-2.95,6.58-2.76c1.27.1,2.5.54,3.78.61,1.38.07,2.77-.31,3.92-1.07Z"/>
          <path class="cls-7" d="m185.19,151.15c2.25-1.51,4.9-2.26,7.44-3.21,2.54-.95,5.1-2.18,6.74-4.33-.51,1.38-1.61,2.47-2.85,3.24-1.24.77-2.64,1.26-4.02,1.75-2.43.85-4.87,1.7-7.3,2.55Z"/>
          <path class="cls-7" d="m190.67,147.5c.77-1.05,1.55-2.12,1.97-3.35-1.65,1.99-3.3,3.98-4.95,5.97,1.29-.38,2.18-1.53,2.98-2.62Z"/>
          <path class="cls-7" d="m194.41,146.8c.46-.85.93-1.73,1.03-2.7-.68,1.59-1.71,3.02-3,4.17.43.11.89-.08,1.22-.38.33-.3.54-.7.76-1.09Z"/>
          <path class="cls-7" d="m189.83,149.76c-.42-.16-.93-.36-1.3-.09,1.23.52,2.49,1.04,3.83,1.16,1.33.12,2.78-.24,3.66-1.24-1.93.88-4.22.95-6.19.18Z"/>
          <path class="cls-7" d="m197.9,147.88c-1.7.33-3.45.4-5.17.2.27.36.71.56,1.15.68,1.38.37,2.92.03,4.02-.87Z"/>
          <path class="cls-18" d="m185.68,145.67c-.81-1.77-2.2-3.26-3.9-4.2-1.69-.94-3.64-1.32-5.57-1.48-1.93-.16-3.87-.1-5.8-.23,1.32,1.36,1.84,3.3,2.11,5.18.26,1.88.32,3.81.94,5.6.62,1.79,1.95,3.49,3.81,3.89,1.42.31,2.89-.18,4.23-.76,1.04-.45,2.06-.96,2.92-1.69.86-.73,1.56-1.7,1.8-2.8.25-1.18-.03-2.42-.54-3.52Z"/>
          <path class="cls-7" d="m185.33,150.91c-2.08-.34-3.95-1.48-5.49-2.92-1.54-1.43-2.78-3.15-4-4.86,2.15.99,3.22,3.4,4.93,5.03,1.29,1.23,2.94,2,4.56,2.75Z"/>
          <path class="cls-7" d="m183.28,150.28c-.43-1.67-.86-3.35-1.29-5.02-.02,1.43.18,2.86.6,4.22.11.36.32.78.69.8Z"/>
          <path class="cls-7" d="m180.05,147.81c-.36-1.42-.72-2.84-1.07-4.26-.03.76-.06,1.52.07,2.27.13.75.45,1.48,1.01,1.99Z"/>
          <path class="cls-7" d="m178.39,147.74c-1.35,0-2.92-.63-4.06-1.36,1.56,1.53,3.83,2.32,6,2.09-.03-.44-.2-.53-.62-.65-.43-.12-.88-.08-1.32-.08Z"/>
          <path class="cls-7" d="m175.95,149.03c.81,1.07,2.03,1.82,3.35,2.07,1.32.25,3.03-.12,4.18-.82-.25-.14-.75-.24-.89-.49-1.01.58-2.24.64-3.38.42-1.14-.22-2.21-.71-3.26-1.19Z"/>
        </g>
        <g>
          <g>
            <path class="cls-18" d="m162.19,141.2c-.19-3.69-1.95-7.26-4.76-9.66.61,1.47-.06,3.17.21,4.75.19,1.14.87,2.15,1.72,2.94.84.79,1.84,1.39,2.84,1.98Z"/>
            <g>
              <path class="cls-18" d="m168.92,133.51c1.14.35,2.05,1.2,2.89,2.04.85.84,1.71,1.72,2.83,2.15,1.11.43,2.55.27,3.25-.7-.4,1.18-1.76,1.78-3,1.81-1.25.03-2.46-.38-3.69-.55-3.39-.46-6.99.99-9.1,3.69.04-2.1.3-4.29,1.44-6.06,1.14-1.77,3.37-2.98,5.38-2.37Z"/>
              <path class="cls-7" d="m166.83,138.29c.53-.81.77-1.76,1.13-2.65-.75,1.64-1.99,3.05-3.52,3.99.1.01.2.01.3,0,.52-.31,1.08-.58,1.65-.8.17-.17.32-.35.44-.55Z"/>
              <path class="cls-7" d="m167.56,138.47c.33-.08.66-.15.99-.19.15-.09.3-.18.43-.3.42-.39.68-.95.71-1.53-.57.81-1.3,1.5-2.13,2.03Z"/>
              <path class="cls-7" d="m170.92,138.23c.6-.2,1.11-.7,1.24-1.32-.62.48-1.29.9-1.98,1.27.25,0,.49.02.74.05Z"/>
            </g>
          </g>
          <path class="cls-18" d="m161.1,160.84c.25-7.1.83-14.2,1.68-21.25-2.73,6.98-2.86,14.66-2.96,22.15,0,.41.64.53.93.25.29-.28.33-.74.34-1.14Z"/>
          <path class="cls-18" d="m177.12,141.6c-1.26,1.38-2.05,3.12-2.81,4.83-.76,1.71-1.53,3.46-2.75,4.87-1.23,1.41-3.01,2.47-4.88,2.37-2.45-.14-4.49-2.2-6.95-2.26.45-2.42,1.43-4.79,3.11-6.58,1.68-1.79,4.13-2.95,6.58-2.76,1.27.1,2.5.54,3.78.61,1.38.07,2.77-.31,3.92-1.07Z"/>
          <path class="cls-7" d="m160.11,151.15c2.25-1.51,4.9-2.26,7.44-3.21,2.54-.95,5.1-2.18,6.74-4.33-.51,1.38-1.61,2.47-2.85,3.24-1.24.77-2.64,1.26-4.02,1.75-2.43.85-4.87,1.7-7.3,2.55Z"/>
          <path class="cls-7" d="m165.59,147.5c.77-1.05,1.55-2.12,1.97-3.35-1.65,1.99-3.3,3.98-4.95,5.97,1.29-.38,2.18-1.53,2.98-2.62Z"/>
          <path class="cls-7" d="m169.33,146.8c.46-.85.93-1.73,1.03-2.7-.68,1.59-1.71,3.02-3,4.17.43.11.89-.08,1.22-.38.33-.3.54-.7.76-1.09Z"/>
          <path class="cls-7" d="m164.75,149.76c-.42-.16-.93-.36-1.3-.09,1.23.52,2.49,1.04,3.83,1.16,1.33.12,2.78-.24,3.66-1.24-1.93.88-4.22.95-6.19.18Z"/>
          <path class="cls-7" d="m172.82,147.88c-1.7.33-3.45.4-5.17.2.27.36.71.56,1.15.68,1.37.37,2.92.03,4.02-.87Z"/>
          <path class="cls-18" d="m160.6,145.67c-.81-1.77-2.2-3.26-3.9-4.2-1.69-.94-3.64-1.32-5.57-1.48-1.93-.16-3.87-.1-5.8-.23,1.32,1.36,1.84,3.3,2.11,5.18.26,1.88.32,3.81.94,5.6.62,1.79,1.95,3.49,3.81,3.89,1.42.31,2.89-.18,4.23-.76,1.04-.45,2.06-.96,2.92-1.69.86-.73,1.56-1.7,1.8-2.8.25-1.18-.03-2.42-.54-3.52Z"/>
          <path class="cls-7" d="m160.25,150.91c-2.08-.34-3.95-1.48-5.49-2.92-1.54-1.43-2.78-3.15-4-4.86,2.15.99,3.22,3.4,4.93,5.03,1.29,1.23,2.94,2,4.56,2.75Z"/>
          <path class="cls-7" d="m158.2,150.28c-.43-1.67-.86-3.35-1.29-5.02-.02,1.43.18,2.86.6,4.22.11.36.32.78.69.8Z"/>
          <path class="cls-7" d="m154.98,147.81c-.36-1.42-.72-2.84-1.07-4.26-.03.76-.06,1.52.07,2.27.13.75.45,1.48,1.01,1.99Z"/>
          <path class="cls-7" d="m153.32,147.74c-1.35,0-2.92-.63-4.06-1.36,1.56,1.53,3.83,2.32,6,2.09-.03-.44-.2-.53-.62-.65-.43-.12-.88-.08-1.32-.08Z"/>
          <path class="cls-7" d="m150.87,149.03c.81,1.07,2.03,1.82,3.35,2.07,1.32.25,3.03-.12,4.18-.82-.25-.14-.75-.24-.89-.49-1.01.58-2.24.64-3.38.42-1.14-.22-2.21-.71-3.26-1.19Z"/>
        </g>
        <path class="cls-19" d="m196.75,166.47c-1.71-1.51-3.43-3.03-5.39-4.21-1.96-1.18-4.18-2-6.46-1.99-2.11.01-4.19.75-5.97,1.89-.09.06-.17.12-.26.18-.04-.03-.08-.06-.12-.08-1.96-1.18-4.18-2-6.46-1.99-2.12.01-4.19.75-5.97,1.89-.09.06-.17.12-.26.18-.04-.03-.08-.06-.12-.08-1.96-1.18-4.18-2-6.46-1.99-2.12.01-4.19.75-5.97,1.89-1.78,1.15-3.28,2.69-4.56,4.37,3.16,2.49,7.18,3.87,11.2,3.86.27,0,.54,0,.81-.02,3.58-.18,7.17-.27,10.75-.02.42.03.83.04,1.25.04.27,0,.54,0,.81-.02,3.58-.18,7.17-.27,10.75-.02.41.03.83.04,1.25.04,4.02-.01,8.03-1.42,11.18-3.92Z"/>
      </g>
      <g>
        <g>
          <g>
            <path class="cls-18" d="m126.68,34.47c-.12.3-.32.57-.59.74-.46.27-1.04.18-1.57.1-.53-.08-1.12-.13-1.54.19.12-.67.26-1.38.71-1.89.45-.5,1.12-.71,1.78-.82.66-.11,1.34-.12,1.97-.32-.28.24-.41.59-.5.95-.09.35-.13.72-.26,1.05Z"/>
            <path class="cls-7" d="m124.6,34.58c-.51.2-.99.46-1.45.76.78-1,2.36-1.04,3.18-2.01-.12.35-.4.62-.72.81s-.67.3-1.01.44Z"/>
            <path class="cls-7" d="m124.41,33.81c-.31.41-.61.82-.92,1.23.44-.27.72-.75.92-1.23Z"/>
            <path class="cls-7" d="m125.27,33.41c-.17.38-.4.74-.7,1.03.11-.08.14.01.24-.08.06-.05.44-.43.46-.95Z"/>
            <path class="cls-7" d="m124.81,34.36s-.04,0-.05.03c-.02.04.04.07.08.08.23.04.46.07.69.04.23-.03.46-.12.6-.3-.44.05-.88.1-1.32.15Z"/>
            <path class="cls-7" d="m125.69,34.83c-.56.04-1.12,0-1.67-.12,0,.11.11.19.22.22.47.15.98.03,1.45-.1Z"/>
            <path class="cls-18" d="m122.89,33.68c-.32-.64-.98-1.06-1.67-1.23-.69-.17-1.42-.1-2.12.03.33.11.56.42.69.75.12.33.16.68.22,1.03s.16.7.39.96c.32.38.85.53,1.34.5.5-.03.97-.2,1.43-.38-.01-.57-.03-1.16-.28-1.67Z"/>
            <path class="cls-7" d="m121.49,34.03c-.29-.39-.54-.87-.99-1.04.43.4.69.95,1.03,1.43.35.47.86.91,1.44.89-.54-.37-1.09-.75-1.49-1.28Z"/>
            <path class="cls-7" d="m122.01,33.48c-.03.26-.07.51-.04.77s.1.52.28.71c0-.18-.03-.35-.06-.53-.06-.32-.11-.63-.17-.95Z"/>
            <path class="cls-7" d="m121.31,34.09c.03.07.14.03.17-.04.02-.07-.11-.98-.24-1.07.02.37.05.74.07,1.1Z"/>
            <path class="cls-7" d="m121.39,34.22s.08-.01.1-.05c.02-.04,0-.09-.04-.11-.04-.02-.08-.04-.12-.03-.36.05-.54-.03-.89-.09.26.21.61.31.95.28Z"/>
            <path class="cls-7" d="m120.78,34.63c.4.24.89.32,1.34.22l-.04-.13c-.43-.03-.87-.06-1.3-.09Z"/>
            <path class="cls-18" d="m123.38,39.21c.24-.08.29-.38.3-.64.03-.62.05-1.24-.01-1.86-.07-.62-.23-1.24-.56-1.76-.15.12-.21.33-.21.52,0,.19.05.38.09.57.2.96.13,1.98-.2,2.91.16.16.37.34.58.27Z"/>
          </g>
          <rect class="cls-2" x="120.66" y="38.17" width="4.79" height="4.09" transform="translate(79.77 162.21) rotate(-88.56)"/>
        </g>
        <g>
          <g>
            <path class="cls-18" d="m133.06,34.63c-.12.3-.32.57-.59.74-.46.27-1.04.18-1.57.1-.53-.08-1.12-.13-1.55.19.12-.67.26-1.38.71-1.89.45-.5,1.12-.71,1.78-.82s1.33-.12,1.97-.32c-.28.24-.42.59-.5.95-.09.35-.13.72-.26,1.05Z"/>
            <path class="cls-7" d="m130.97,34.74c-.51.2-.99.46-1.45.76.78-1,2.36-1.04,3.18-2.01-.12.35-.4.62-.72.81s-.67.3-1.01.44Z"/>
            <path class="cls-7" d="m130.79,33.97c-.31.41-.61.82-.92,1.23.44-.27.72-.75.92-1.23Z"/>
            <path class="cls-7" d="m131.64,33.57c-.17.38-.4.74-.7,1.03.11-.08.14.01.24-.08.06-.05.44-.43.46-.95Z"/>
            <path class="cls-7" d="m131.19,34.52s-.04,0-.06.03c-.02.04.04.07.08.08.23.03.46.07.69.04.23-.03.46-.12.6-.3-.44.05-.88.1-1.32.15Z"/>
            <path class="cls-7" d="m132.06,34.99c-.56.04-1.12,0-1.67-.12,0,.11.11.19.22.22.47.15.98.02,1.45-.1Z"/>
            <path class="cls-18" d="m129.27,33.84c-.32-.64-.97-1.06-1.67-1.23-.69-.16-1.42-.1-2.12.03.33.11.56.42.69.75.12.33.16.68.22,1.03.06.34.16.7.39.96.32.38.85.53,1.34.5.5-.03.97-.2,1.43-.38-.01-.57-.03-1.16-.28-1.67Z"/>
            <path class="cls-7" d="m127.87,34.19c-.29-.39-.53-.87-.99-1.04.43.4.69.95,1.03,1.43.35.47.86.91,1.44.89-.54-.37-1.09-.76-1.49-1.28Z"/>
            <path class="cls-7" d="m128.39,33.64c-.03.25-.07.51-.04.77.02.26.1.52.28.71,0-.18-.04-.35-.07-.53-.05-.32-.11-.63-.16-.95Z"/>
            <path class="cls-7" d="m127.68,34.25c.03.07.14.03.17-.04.02-.07-.11-.98-.24-1.07.02.37.05.74.07,1.1Z"/>
            <path class="cls-7" d="m127.77,34.38s.08-.01.1-.05c.02-.04,0-.09-.04-.11-.04-.02-.08-.04-.12-.03-.36.05-.54-.03-.89-.09.26.21.61.31.95.28Z"/>
            <path class="cls-7" d="m127.15,34.79c.4.24.89.32,1.34.22-.01-.04-.03-.09-.04-.13-.43-.03-.87-.06-1.3-.09Z"/>
            <path class="cls-18" d="m129.76,39.37c.24-.08.29-.39.3-.64.03-.62.05-1.25-.01-1.86-.07-.62-.23-1.24-.56-1.76-.15.12-.21.33-.21.52,0,.19.05.38.09.57.2.96.13,1.98-.2,2.91.16.16.37.34.58.27Z"/>
          </g>
          <rect class="cls-2" x="127.03" y="38.33" width="4.79" height="4.09" transform="translate(85.82 168.74) rotate(-88.56)"/>
        </g>
        <g>
          <g>
            <path class="cls-18" d="m139.43,34.79c-.12.3-.32.57-.59.74-.46.27-1.04.18-1.57.1-.53-.08-1.12-.13-1.54.19.12-.67.26-1.38.71-1.89.45-.5,1.12-.71,1.78-.82.66-.11,1.34-.12,1.97-.32-.28.24-.41.59-.5.95-.09.35-.13.72-.26,1.05Z"/>
            <path class="cls-7" d="m137.35,34.9c-.51.2-.99.46-1.45.76.78-1,2.36-1.04,3.18-2-.12.35-.4.62-.72.81-.32.19-.67.3-1.01.44Z"/>
            <path class="cls-7" d="m137.17,34.13c-.31.41-.61.82-.92,1.23.44-.27.72-.75.92-1.23Z"/>
            <path class="cls-7" d="m138.02,33.73c-.17.38-.4.74-.7,1.03.12-.08.14.01.24-.08.06-.05.44-.43.46-.95Z"/>
            <path class="cls-7" d="m137.56,34.68s-.04,0-.05.02c-.02.04.04.07.08.08.23.03.46.07.69.04.23-.02.46-.12.6-.3-.44.05-.88.1-1.32.15Z"/>
            <path class="cls-7" d="m138.44,35.15c-.56.04-1.12,0-1.67-.12,0,.11.11.19.22.22.47.15.97.03,1.45-.1Z"/>
            <path class="cls-18" d="m135.65,34c-.32-.64-.98-1.06-1.67-1.23-.69-.17-1.42-.1-2.12.03.33.11.56.42.69.75.12.33.16.68.22,1.03s.16.7.39.96c.32.38.85.53,1.34.5.5-.03.97-.2,1.43-.38-.01-.57-.03-1.16-.28-1.67Z"/>
            <path class="cls-7" d="m134.25,34.35c-.29-.39-.54-.87-.99-1.04.43.4.69.95,1.03,1.43.35.48.86.91,1.44.89-.54-.37-1.09-.76-1.49-1.28Z"/>
            <path class="cls-7" d="m134.76,33.8c-.03.26-.07.51-.04.77s.1.52.28.71c0-.18-.03-.35-.06-.53-.06-.32-.11-.63-.17-.95Z"/>
            <path class="cls-7" d="m134.06,34.41c.03.07.14.03.17-.04.02-.07-.11-.98-.24-1.07.02.37.05.73.07,1.1Z"/>
            <path class="cls-7" d="m134.14,34.54s.08-.01.1-.05c.02-.04,0-.09-.04-.11-.04-.02-.08-.04-.12-.03-.36.05-.54-.03-.89-.09.26.21.61.31.95.28Z"/>
            <path class="cls-7" d="m133.53,34.95c.4.24.89.32,1.34.22-.01-.04-.03-.09-.04-.13-.43-.03-.87-.06-1.3-.09Z"/>
            <path class="cls-18" d="m136.14,39.53c.24-.08.29-.38.3-.64.03-.62.05-1.25-.01-1.86-.07-.62-.23-1.24-.56-1.76-.15.12-.21.33-.21.52,0,.19.05.38.09.57.2.96.13,1.98-.2,2.91.16.16.37.34.58.27Z"/>
          </g>
          <rect class="cls-2" x="133.41" y="38.49" width="4.79" height="4.09" transform="translate(91.88 175.28) rotate(-88.56)"/>
        </g>
        <g>
          <g>
            <path class="cls-18" d="m145.81,34.95c-.12.3-.32.57-.59.74-.46.27-1.04.18-1.57.1-.53-.08-1.12-.13-1.55.19.12-.67.26-1.38.71-1.89.45-.5,1.12-.71,1.78-.82.66-.11,1.33-.12,1.97-.32-.28.24-.41.59-.5.95-.08.35-.13.72-.26,1.05Z"/>
            <path class="cls-7" d="m143.73,35.06c-.51.2-.99.46-1.45.76.78-1,2.36-1.04,3.18-2.01-.12.35-.4.62-.72.81-.32.19-.67.3-1.01.44Z"/>
            <path class="cls-7" d="m143.54,34.29c-.31.41-.61.82-.92,1.23.44-.27.72-.75.92-1.23Z"/>
            <path class="cls-7" d="m144.39,33.89c-.17.38-.4.74-.7,1.03.11-.08.14.01.24-.08.06-.05.44-.43.46-.95Z"/>
            <path class="cls-7" d="m143.94,34.84s-.04,0-.06.03c-.02.04.04.07.08.08.23.04.46.07.69.04.23-.03.46-.12.6-.3-.44.05-.88.1-1.32.15Z"/>
            <path class="cls-7" d="m144.82,35.31c-.56.04-1.12,0-1.67-.12,0,.11.11.19.22.22.47.15.98.03,1.45-.1Z"/>
            <path class="cls-18" d="m142.02,34.17c-.32-.64-.97-1.06-1.67-1.23-.69-.17-1.42-.1-2.12.03.33.11.56.42.69.75.12.33.16.68.22,1.03.06.34.16.7.39.96.32.38.85.53,1.34.5.5-.03.97-.2,1.43-.38-.01-.57-.03-1.16-.28-1.67Z"/>
            <path class="cls-7" d="m140.62,34.51c-.29-.39-.53-.87-.99-1.04.43.4.69.95,1.03,1.43.35.47.85.91,1.44.89-.54-.37-1.09-.75-1.49-1.28Z"/>
            <path class="cls-7" d="m141.14,33.96c-.03.26-.07.51-.05.77.02.26.1.52.28.71,0-.18-.04-.35-.07-.53-.05-.32-.11-.63-.16-.95Z"/>
            <path class="cls-7" d="m140.44,34.57c.03.07.14.03.17-.04.02-.07-.11-.98-.24-1.07.02.37.05.74.07,1.1Z"/>
            <path class="cls-7" d="m140.52,34.7s.08-.01.1-.05c.02-.04,0-.09-.04-.11-.04-.02-.08-.04-.12-.03-.36.05-.54-.03-.89-.09.26.21.61.31.95.28Z"/>
            <path class="cls-7" d="m139.91,35.11c.4.24.89.32,1.34.22-.01-.04-.03-.09-.04-.13-.43-.03-.87-.06-1.3-.09Z"/>
            <path class="cls-18" d="m142.51,39.69c.24-.07.29-.38.3-.64.03-.62.05-1.25-.01-1.86-.07-.62-.23-1.24-.56-1.76-.15.12-.21.33-.21.52,0,.19.05.38.09.57.2.96.13,1.98-.2,2.91.16.16.37.34.58.27Z"/>
          </g>
          <rect class="cls-2" x="139.79" y="38.65" width="4.79" height="4.09" transform="translate(97.9 181.8) rotate(-88.55)"/>
        </g>
        <g>
          <g>
            <path class="cls-18" d="m152.19,35.11c-.12.3-.32.57-.59.74-.46.27-1.04.18-1.57.1-.53-.08-1.12-.13-1.54.19.12-.67.26-1.38.71-1.89.45-.5,1.12-.71,1.78-.82.66-.1,1.34-.12,1.97-.32-.28.24-.41.59-.5.94-.09.35-.13.72-.26,1.05Z"/>
            <path class="cls-7" d="m150.1,35.22c-.51.2-.99.46-1.45.76.78-1,2.36-1.04,3.18-2.01-.12.35-.4.62-.72.81s-.67.3-1.01.44Z"/>
            <path class="cls-7" d="m149.92,34.45c-.31.41-.61.82-.92,1.23.44-.27.72-.75.92-1.23Z"/>
            <path class="cls-7" d="m150.77,34.05c-.17.38-.4.74-.7,1.03.12-.08.14.01.24-.08.06-.05.44-.43.46-.95Z"/>
            <path class="cls-7" d="m150.31,35s-.04,0-.05.03c-.02.04.04.07.08.08.23.03.46.07.69.04s.46-.12.6-.3c-.44.05-.88.1-1.32.15Z"/>
            <path class="cls-7" d="m151.19,35.47c-.56.04-1.12,0-1.67-.12,0,.11.11.19.22.22.47.15.97.02,1.45-.1Z"/>
            <path class="cls-18" d="m148.4,34.33c-.32-.64-.98-1.06-1.67-1.23-.69-.17-1.42-.1-2.12.03.33.11.56.42.69.75.12.33.16.68.22,1.03s.16.7.39.96c.32.38.85.53,1.34.5.5-.03.97-.2,1.43-.38-.01-.57-.03-1.16-.28-1.67Z"/>
            <path class="cls-7" d="m147,34.67c-.29-.39-.54-.87-.99-1.04.43.4.69.95,1.03,1.43.35.48.86.91,1.44.89-.54-.37-1.09-.76-1.49-1.28Z"/>
            <path class="cls-7" d="m147.52,34.13c-.03.26-.07.51-.04.77.02.26.1.52.28.71,0-.18-.03-.35-.06-.53-.06-.32-.11-.63-.17-.95Z"/>
            <path class="cls-7" d="m146.81,34.73c.03.07.14.03.17-.04.02-.07-.11-.98-.24-1.07.02.37.05.74.07,1.1Z"/>
            <path class="cls-7" d="m146.9,34.86s.08-.01.1-.05c.02-.04,0-.09-.04-.11-.04-.02-.08-.04-.12-.03-.36.05-.54-.03-.89-.09.26.21.61.31.95.28Z"/>
            <path class="cls-7" d="m146.28,35.27c.4.24.89.32,1.34.22-.01-.04-.03-.09-.04-.13-.43-.03-.87-.06-1.3-.09Z"/>
            <path class="cls-18" d="m148.89,39.85c.24-.08.29-.39.3-.64.03-.62.05-1.25-.01-1.86-.07-.62-.23-1.24-.56-1.76-.15.13-.21.33-.21.52,0,.19.05.38.09.57.2.96.13,1.98-.2,2.91.16.16.37.34.58.27Z"/>
          </g>
          <rect class="cls-2" x="146.16" y="38.81" width="4.79" height="4.09" transform="translate(103.99 188.34) rotate(-88.56)"/>
        </g>
        <g>
          <path class="cls-12" d="m148.24,66.89c-6.62-1.09-13.75-15.63-14.15-16.26l1.43-.9c2.6,4.12,8.13,14.69,13,15.49.96.16,1.25-.2,1.35-.33,1.4-1.79-.07-10.44-1.75-14.38l1.55-.66c.79,1.85,3.95,13,1.52,16.08-.46.58-1.34,1.22-2.95.95Z"/>
          <polygon class="cls-8" points="152.23 49.24 127.41 52.62 116.22 37.83 157.2 40.07 152.23 49.24"/>
          <path class="cls-14" d="m128.93,55.67l-1.76-1.57,2.28-2.57c.69-.77,1.66-1.24,2.69-1.3l19.4-1.16c.41-.02.8-.17,1.13-.42l12.81-12.74,14.13-1.89.31,2.34-13.51,1.8-12.88,12.8c-.33.25-.72.4-1.13.42l-19.79,1.19c-.62.04-1.2.32-1.61.78l-2.07,2.32Z"/>
          <path class="cls-2" d="m165.29,35.98l1.02,2.11c.12.25.38.39.65.36l12.73-1.53c.35-.04.6-.36.56-.71l-.26-2.34c-.04-.36-.36-.61-.72-.56l-13.49,1.76c-.43.06-.68.52-.49.91Z"/>
          <path class="cls-2" d="m133.42,59.04c0,4.89-3.96,8.86-8.86,8.86s-8.86-3.96-8.86-8.86,3.96-8.85,8.86-8.85,8.86,3.96,8.86,8.85Z"/>
          <path class="cls-14" d="m131.02,59.04c0,3.57-2.89,6.46-6.46,6.46s-6.46-2.89-6.46-6.46,2.89-6.46,6.46-6.46,6.46,2.89,6.46,6.46Z"/>
          <path class="cls-20" d="m129.39,59.04c0,2.67-2.16,4.83-4.83,4.83s-4.83-2.16-4.83-4.83,2.16-4.83,4.83-4.83,4.83,2.16,4.83,4.83Z"/>
          <path class="cls-13" d="m125.91,59.04c0,.74-.6,1.35-1.35,1.35s-1.35-.6-1.35-1.35.6-1.35,1.35-1.35,1.35.6,1.35,1.35Z"/>
        </g>
      </g>
      <g>
        <ellipse class="cls-1" cx="86.43" cy="149.43" rx="55.19" ry="16.8"/>
        <path class="cls-5" d="m77.1,42.52c2.73-.86,5.9-1.67,8.29-.09,2.62,1.74,3.21,5.75,6.08,7.04-8.38-.64-16.91.86-24.56,4.32,2.33-1.31,2.09-4.74,3.41-7.06,1.35-2.37,4.19-3.38,6.79-4.2Z"/>
        <path class="cls-2" d="m98.05,136.52c1.47,2.06,2.7,4.89,1.32,7.01-1.41,2.17-5.66,3.43-9.58,2.66-12.51-2.44-22.35-6.61-34.48-10.52.3-2.52,1.67-5.91,1.97-8.43,10.31,3.87,19.73,8.66,30.71,9.46-5.15-2.33-10.44-4.76-14.29-8.9-3.85-4.14-5.93-10.46-3.53-15.57,3.67-.09,9.4.7,9.4.7,2.79,8.98,13,15.95,18.48,23.59Z"/>
        <path class="cls-2" d="m51.29,140.61c1.06.08,2.07-.6,2.68-1.48s.89-1.93,1.16-2.96c.66-2.51,1.33-5.02,1.99-7.53.16-.6.29-1.32-.11-1.79-.23-.26-.57-.38-.9-.49-1.73-.57-3.46-1.14-5.19-1.71-1.13,2.15-2.27,4.33-2.86,6.68-.59,2.36-.58,4.95.53,7.11.55,1.08,1.5,2.09,2.7,2.18Z"/>
        <path class="cls-6" d="m73.91,112.67c-4.51-.68-9.03-1.36-13.54-2.04-1.19-.18-2.43-.35-3.57.05-2.02.71-3.56,2.37-4.33,4.36-.89,2.31-1.23,5.42-.42,7.76.76,2.19,2.81,3.62,4.77,4.85,7.24,4.54,14.91,8.4,22.87,11.52-8.93-2.45-17.63-5.71-25.98-9.71-.96,3.08-2.32,7.29-3.28,10.38,0,0,21.42,5.13,32.64,6.32,2.63.28,6.76-1.13,8.42-3.19,1.25-1.56,1.18-3.87.35-5.69-.83-1.82-2.29-3.27-3.73-4.67-3.73-3.64-7.45-7.29-11.18-10.93-1.24-1.22-2.51-2.47-3.25-4.05-.73-1.58-.83-3.57.22-4.96Z"/>
        <path class="cls-2" d="m48.16,142.92c1.06.08,2.07-.6,2.68-1.48.61-.88.89-1.93,1.16-2.96.66-2.51,1.33-5.02,1.99-7.53.16-.6.29-1.32-.11-1.79-.23-.26-.57-.38-.9-.49-1.73-.57-3.46-1.14-5.19-1.71-1.13,2.15-2.27,4.33-2.85,6.68-.59,2.36-.58,4.95.53,7.11.55,1.08,1.5,2.09,2.7,2.18Z"/>
        <path class="cls-16" d="m105.79,112.36c.47-.27,1.6-.67,1.6-.67,0,0,4.91,2.29,3.38,5.22-.61,1.16-2.71,1.96-4.01,1.76-2.26-.35-4.11-1.43-5.62-3.16,1.45-.84,3.19-2.32,4.64-3.16Z"/>
        <path class="cls-9" d="m99.58,56.34c-.44-3.39-3.82-5.59-7.05-6.71-6.01-2.1-12.72-2.15-18.76-.15-3.42,1.14-6.75,3.03-8.71,6.06-1.95,3.03-2.17,7.36.2,10.08,2.35,2.7,6.35,3.12,9.92,3.02,4.46-.12,8.9-.75,13.22-1.88,3.37-.88,6.81-2.15,9.13-4.74,1.39-1.55,2.32-3.62,2.05-5.68Z"/>
        <path class="cls-16" d="m82.43,74.06c3.12-.59,5.62-3.08,7.03-5.93,1.41-2.85,1.91-6.05,2.39-9.19.31-2,.57-4.21-.53-5.91-1-1.54-2.89-2.25-4.7-2.59-5.77-1.07-12.01.85-16.19,4.97-.35,4.28-.29,8.77,1.63,12.62,1.92,3.84,6.16,6.81,10.38,6.02Z"/>
        <path class="cls-16" d="m70.76,64.78c-.21-.94-.03-1.91.12-2.86.16-.95.29-1.93.01-2.85-.28-.92-1.08-1.75-2.04-1.74-1.11,0-1.96,1.16-1.96,2.27,0,1.11.65,2.12,1.42,2.92.77.8,1.69,1.45,2.44,2.27Z"/>
        <path class="cls-2" d="m71.66,52.65c5.52-4.7,9.93-2.48,9.93-2.48-2.07,4.01-7.88,9.32-11.35,12.21-.36-1.46-.66-2.95-.66-4.46,0-2.6.93-4.29,2.08-5.27Z"/>
        <path class="cls-2" d="m85.83,59.86c5.69,1.19,8.24-.21,8.24-.21,1.01-2.7.12-6.08-2.31-7.64-2.43-1.55-5.74-2.31-8.61-2.59-5.15-.5-8.05,1.03-8.05,1.03,1.77,4.21,6.25,8.47,10.72,9.41Z"/>
        <path class="cls-16" d="m83.19,74.12c-.18-.98-.14-1.96.06-2.93-.5.13-1.02.22-1.56.22-1.24,0-2.39-.38-3.38-1.01-.18.95-.44,1.88-.83,2.77-.98,2.26-2.94,4.26-5.39,4.59.07,3.15.48,6.29,1.21,9.36.38,1.6.87,3.22,1.85,4.53.99,1.31,2.58,2.28,4.21,2.13,2.13-.2,3.68-2.18,4.36-4.21.68-2.03.74-4.22,1.36-6.26.62-2.05,2.04-4.09,4.15-4.46-2.8.54-5.53-1.94-6.04-4.74Z"/>
        <path class="cls-8" d="m88.01,78.83c1.25-.27,2.57.38,3.39,1.36.83.98,1.24,2.24,1.53,3.48,1,4.28.77,8.79,1.82,13.05,1.63,6.61,6.51,12.34,12.77,15.01,0,0-3.99,3.03-5.66,3.97-6.12-2.21-10.75-7.81-13.96-13.47-3.21-5.66-4.33-12.48-3.09-18.87.37-1.93,1.28-4.14,3.2-4.55Z"/>
        <path class="cls-11" d="m89.44,78.91c-3.03,11.41-5.94,23.85-9.49,35.11-6.56,1.12-15.76.63-24.12-2.84,2.39-9.94,4.51-18.79,6.9-28.73.35-1.44,1.61-3.72,2.49-4.92,0,0,3.75-.56,10.05-1.52,2.35,4.21,8.48,2.33,9.12.76,0,0,3.08,1.79,5.04,2.14Z"/>
        <g>
          <path class="cls-18" d="m104.1,100.57c.39-1.27,1.38-2.33,2.62-2.81.95-.37,2-.39,2.98-.67,1.71-.5,3.15-1.84,3.77-3.52.28,1.67.56,3.37.32,5.04-.23,1.67-1.06,3.35-2.52,4.2-1.24.72-2.74.75-4.17.77-1,.01-2.14-.05-2.75-.83-.47-.6-.46-1.45-.24-2.17Z"/>
          <path class="cls-18" d="m103.03,96.62c-1.21-1.48-2.64-2.77-4.24-3.83-.43,1.82-.7,3.72-.35,5.56.35,1.84,1.4,3.62,3.06,4.47.89.46,2.08.59,2.83-.08.6-.54.74-1.45.63-2.26-.19-1.44-1.01-2.73-1.93-3.86Z"/>
          <path class="cls-18" d="m105.37,120.8c-.35-.24-.75-.5-.92-.97-.06-.17-.03-.46.02-.72.11-.53.2-1.05.24-1.59.21-2.66.75-9.67,1.06-13.47.05-.56.08-1.16-.22-1.63-.31-.47-1.1-.63-1.4-.17-.4,5.21-.8,10.43-1.2,15.65-.53.18-1.05.4-1.5.77-.58.46-1.06,1.21-1.1,2.07-.04.77.27,1.49.61,2.14.34.65.72,1.28.86,2.03.14.75-.04,1.66-.59,2.01.68.15,1.29-.66,1.41-1.5.12-.84-.54-2.01-.91-3.07-.28-.8-.68-1.47.04-2.51.09-.13.27-.23.47-.32,0,0,0,.01,0,.02-.11.88.17,1.76.49,2.56.32.8.7,1.58.83,2.46.13.88-.06,1.9-.67,2.38.89.07,2.27-1.4.61-5.18-.15-.34-.46-1.37-.21-1.91.06-.12.13-.19.22-.25.03.13.08.26.13.38.23.48.61.81,1,1.1.38.29.78.56,1.09.97.71.95.71,2.47.25,3.63.69-.26,1.87-3.2-.6-4.89Z"/>
        </g>
        <path class="cls-19" d="m137.36,149.05c-1.25-5.98-4.52-11.35-8.69-14.19-5.84-3.98-12.98-3.34-18.64.65-4.34,3.06-7.83,7.9-10.41,13.54h37.74Z"/>
        <path class="cls-16" d="m104.83,116.53c.49-1.7-.59-3.5-1.99-4.59-1.12-.87-2.48-1.44-3.89-1.65-1.21,2.29-2.42,4.58-3.62,6.87,1.6.91,3.27,1.84,5.11,1.97,1.84.12,3.88-.83,4.39-2.6Z"/>
        <path class="cls-8" d="m82.13,102.31c-3.5-1.7-6.09-4.84-7.1-8.59-.89-3.29-1.51-6.28-2.6-11.15-.38-1.7-.99-3-2.34-4.1-1.35-1.09-3.28-1.65-4.86-.94-1.61.72-2.48,2.56-2.56,4.33-.08,1.76,1.27,14.09,2.98,19.15.59,1.74,1.21,3.54,2.46,4.9,1.18,1.28,2.81,2.04,4.4,2.75,7.63,3.4,15.45,6.39,23.4,8.95,1.75-2.26,3.14-4.8,4.11-7.49-2.95-.65-12-4.93-17.89-7.8Z"/>
        <g>
          <path class="cls-2" d="m85.88,148.43l-2.98,10.2s12.42,3.36,15.38-2.16c2.89-5.4-12.4-8.04-12.4-8.04Z"/>
          <path class="cls-3" d="m89.9,154.43c.19-.48-2.12-1.27-2.83-1.42l-34.84-7.28c-1.36-.23-2.69.25-3.12,1.14l-.02.04c-.53,1.09.53,2.32,2.22,2.57l35.26,5.28c.66.1,3.17.11,3.34-.33h0Z"/>
        </g>
      </g>
      <g>
        <g>
          <path class="cls-19" d="m119.47,158.5c.63-.71,1.72-1.68,2.47-2.26.75-.58,1.63-1.04,2.58-1.14,1.03-.11,2.07.19,2.99.66,1.36.69,2.51,1.72,3.64,2.74-1.62,1.11-3.55,1.72-5.51,1.84-3.36.2-6.17-1.84-6.17-1.84Z"/>
          <path class="cls-18" d="m132.15,146.28c-.22.6-.6,1.16-1.15,1.5-.91.56-2.06.41-3.12.28-1.06-.14-2.24-.2-3.07.46.2-1.35.44-2.77,1.33-3.81.86-1.01,2.21-1.48,3.51-1.72s2.66-.31,3.92-.73c-.54.48-.8,1.2-.95,1.91-.15.71-.22,1.44-.47,2.11Z"/>
          <path class="cls-7" d="m128,146.6c-1,.43-1.95.96-2.85,1.58,1.5-2.04,4.66-2.18,6.24-4.16-.21.7-.77,1.26-1.39,1.65-.62.39-1.32.64-2,.93Z"/>
          <path class="cls-7" d="m127.59,145.08c-.59.83-1.18,1.66-1.77,2.49.87-.56,1.4-1.52,1.77-2.49Z"/>
          <path class="cls-7" d="m129.27,144.23c-.31.77-.77,1.49-1.34,2.1.22-.16.27.02.48-.17.12-.11.86-.88.86-1.93Z"/>
          <path class="cls-7" d="m128.41,146.16s-.09.02-.11.05c-.04.08.07.14.16.15.46.06.92.12,1.37.05.46-.06.91-.26,1.19-.62-.87.12-1.74.24-2.62.37Z"/>
          <path class="cls-7" d="m130.18,147.05c-1.11.1-2.24.05-3.33-.16,0,.22.23.37.45.43.94.28,1.95,0,2.89-.27Z"/>
          <path class="cls-18" d="m124.55,144.9c-.66-1.26-2-2.06-3.39-2.36-1.39-.29-2.84-.13-4.23.16.67.21,1.14.81,1.41,1.46.26.65.35,1.35.49,2.03.14.68.35,1.38.82,1.9.66.74,1.72,1.01,2.71.94.99-.08,1.92-.45,2.84-.82-.05-1.13-.11-2.31-.64-3.32Z"/>
          <path class="cls-7" d="m121.78,145.66c-.61-.75-1.11-1.7-2.03-2.02.87.78,1.42,1.86,2.13,2.79.72.93,1.75,1.77,2.92,1.7-1.09-.72-2.21-1.45-3.03-2.47Z"/>
          <path class="cls-7" d="m122.79,144.55c-.05.51-.11,1.03-.05,1.54.06.51.23,1.02.58,1.4-.02-.35-.09-.7-.16-1.05-.12-.63-.25-1.26-.38-1.89Z"/>
          <path class="cls-7" d="m121.42,145.79c.06.13.29.06.33-.08.04-.14-.28-1.95-.53-2.11.07.73.13,1.46.2,2.19Z"/>
          <path class="cls-7" d="m121.59,146.05c.08,0,.16-.03.2-.1.04-.08,0-.18-.08-.22-.07-.05-.16-.08-.25-.06-.71.12-1.08-.03-1.77-.13.54.41,1.23.6,1.9.51Z"/>
          <path class="cls-7" d="m120.39,146.89c.8.46,1.79.6,2.68.36-.03-.08-.06-.17-.08-.25-.87-.04-1.73-.07-2.6-.11Z"/>
          <path class="cls-18" d="m125.81,155.9c.47-.16.57-.78.57-1.29.02-1.24.05-2.48-.12-3.71-.16-1.23-.52-2.45-1.2-3.49-.28.26-.39.66-.38,1.04,0,.38.12.75.21,1.13.45,1.91.36,3.95-.26,5.81.32.31.75.66,1.18.51Z"/>
        </g>
        <g>
          <path class="cls-5" d="m117.27,159.05l2.14,17.58c.12.95.92,1.67,1.88,1.67h7.7c.96,0,1.77-.72,1.88-1.67l2.14-17.58h-15.74Z"/>
          <path class="cls-15" d="m134.91,157.62h-19.54c-.64,0-1,.75-.6,1.25l.5.25c.51.25.89.69,1.07,1.23l.25.76c.15.18.36.28.6.28h15.91c.23,0,.45-.1.59-.28l.25-.76c.17-.54.56-.98,1.07-1.23l.5-.25c.41-.5.05-1.25-.6-1.25Z"/>
        </g>
      </g>
    </g>
  </g>
</svg>